# xmcd
#
# Track frame offsets: 
#        150
#        52878
#        97164
#        127581
#        151301
#        173713
#        194628
#        212024
#        227048
#        252295
#
# Disc length: 3555 seconds
#
# Revision: 0
# Processed by: cddbd v1.5.2PL0 Copyright (c) Steve Scherf et al.
# Submitted via: ExactAudioCopy v0.95b3
#
DISCID=800de10a
DTITLE=The Rolling Stones  - Girls, Pills And Powders [CD1]
DYEAR=1900
DGENRE=
TTITLE0=Miss You (Take 2)
TTITLE1=When The Whip Comes Down (Take 1)
TTITLE2=Just My Imagination (Take 4)
TTITLE3=Some Girls (Take 3)
TTITLE4=Lies (Take 1)
TTITLE5=Fare Away Eyes (Take 1)
TTITLE6=Respectable (Take 3)
TTITLE7=Before They Make Me Run (Take 4)
TTITLE8=Beast Of Burden (Take 1)
TTITLE9=Shattered (Take 2)
EXTD=
EXTT0=
EXTT1=
EXTT2=
EXTT3=
EXTT4=
EXTT5=
EXTT6=
EXTT7=
EXTT8=
EXTT9=
PLAYORDER=
